{"accessors":[{"bufferView":0,"componentType":5126,"count":699,"max":[118.595741271973,3.8552873134613,21.9923248291016],"min":[-159.068725585938,-2.10238242149353,-388.799560546875],"normalized":false,"type":"VEC3"},{"bufferView":1,"componentType":5126,"count":699,"max":[1.0,0.0000305185094475746,0.0000776491142460145,1.0],"min":[-0.999841094017029,-0.99984085559845,-1.0,-1.0],"normalized":false,"type":"VEC4"},{"bufferView":2,"componentType":5126,"count":699,"max":[0.99984085559845,0.999840557575226,1.0],"min":[-0.999841094017029,-0.999841094017029,-1.0],"normalized":false,"type":"VEC3"},{"bufferView":3,"componentType":5126,"count":699,"max":[1.0,1.0],"min":[0.0,0.0],"normalized":false,"type":"VEC2"},{"bufferView":4,"componentType":5123,"count":699,"max":[698.0],"min":[0.0],"normalized":false,"type":"SCALAR"},{"bufferView":5,"componentType":5126,"count":2970,"max":[386.294128417969,73.2475814819336,31.0808792114258],"min":[-213.490936279297,-59.4462928771973,-541.551635742188],"normalized":false,"type":"VEC3"},{"bufferView":6,"componentType":5126,"count":2970,"max":[1.0,0.281047523021698,0.99129056930542,1.0],"min":[-1.0,-1.0,-1.0,-1.0],"normalized":false,"type":"VEC4"},{"bufferView":7,"componentType":5126,"count":2970,"max":[1.0,1.0,1.0],"min":[-1.0,-1.0,-1.0],"normalized":false,"type":"VEC3"},{"bufferView":8,"componentType":5126,"count":2970,"max":[1.0,1.0],"min":[0.0,0.0],"normalized":false,"type":"VEC2"},{"bufferView":9,"componentType":5123,"count":2970,"max":[2969.0],"min":[0.0],"normalized":false,"type":"SCALAR"},{"bufferView":10,"componentType":5126,"count":105,"max":[-21.3421497344971,11.185546875,-33.0835494995117],"min":[-72.1642303466797,-0.5,-102.460609436035],"normalized":false,"type":"VEC3"},{"bufferView":11,"componentType":5126,"count":105,"max":[0.866897523403168,0.0000625070970272645,0.866840839385986,-1.0],"min":[-0.498585015535355,-1.0,0.0000763009302318096,-1.0],"normalized":false,"type":"VEC4"},{"bufferView":12,"componentType":5126,"count":105,"max":[0.866879522800446,1.0,0.866851210594177],"min":[-0.866884708404541,-1.0,-0.866842150688171],"normalized":false,"type":"VEC3"},{"bufferView":13,"componentType":5126,"count":105,"max":[1.0,1.0],"min":[0.0,0.0],"normalized":false,"type":"VEC2"},{"bufferView":14,"componentType":5123,"count":105,"max":[104.0],"min":[0.0],"normalized":false,"type":"SCALAR"},{"bufferView":15,"componentType":5126,"count":96,"max":[-195.819915771484,78.1995010375977,-771.718688964844],"min":[-424.501922607422,-78.1995010375977,-1000.40069580078],"normalized":false,"type":"VEC3"},{"bufferView":16,"componentType":5126,"count":96,"max":[1.0,0.0000647405249765143,0.990606546401978,1.0],"min":[-0.990612268447876,-0.0000215795153053477,-0.990609526634216,-1.0],"normalized":false,"type":"VEC4"},{"bufferView":17,"componentType":5126,"count":96,"max":[0.990606904029846,1.0,0.990606606006622],"min":[-0.990606904029846,-1.0,-0.990598976612091],"normalized":false,"type":"VEC3"},{"bufferView":18,"componentType":5126,"count":96,"max":[1.0,1.0],"min":[0.0,0.0],"normalized":false,"type":"VEC2"},{"bufferView":19,"componentType":5123,"count":96,"max":[95.0],"min":[0.0],"normalized":false,"type":"SCALAR"},{"bufferView":20,"componentType":5126,"count":699,"max":[118.595741271973,3.8552873134613,21.9923248291016],"min":[-159.068725585938,-2.10238242149353,-388.799560546875],"normalized":false,"type":"VEC3"},{"bufferView":21,"componentType":5126,"count":699,"max":[1.0,0.0000305185094475746,0.0000776491142460145,1.0],"min":[-0.999841094017029,-0.99984085559845,-1.0,-1.0],"normalized":false,"type":"VEC4"},{"bufferView":22,"componentType":5126,"count":699,"max":[0.99984085559845,0.999840557575226,1.0],"min":[-0.999841094017029,-0.999841094017029,-1.0],"normalized":false,"type":"VEC3"},{"bufferView":23,"componentType":5126,"count":699,"max":[1.0,1.0],"min":[0.0,0.0],"normalized":false,"type":"VEC2"},{"bufferView":24,"componentType":5123,"count":699,"max":[698.0],"min":[0.0],"normalized":false,"type":"SCALAR"},{"bufferView":25,"componentType":5126,"count":2970,"max":[386.294128417969,73.2475814819336,31.0808792114258],"min":[-213.490936279297,-59.4462928771973,-541.551635742188],"normalized":false,"type":"VEC3"},{"bufferView":26,"componentType":5126,"count":2970,"max":[1.0,0.281047523021698,0.99129056930542,1.0],"min":[-1.0,-1.0,-1.0,-1.0],"normalized":false,"type":"VEC4"},{"bufferView":27,"componentType":5126,"count":2970,"max":[1.0,1.0,1.0],"min":[-1.0,-1.0,-1.0],"normalized":false,"type":"VEC3"},{"bufferView":28,"componentType":5126,"count":2970,"max":[1.0,1.0],"min":[0.0,0.0],"normalized":false,"type":"VEC2"},{"bufferView":29,"componentType":5123,"count":2970,"max":[2969.0],"min":[0.0],"normalized":false,"type":"SCALAR"},{"bufferView":30,"componentType":5126,"count":105,"max":[-21.3421497344971,11.185546875,-33.0835494995117],"min":[-72.1642303466797,-0.5,-102.460609436035],"normalized":false,"type":"VEC3"},{"bufferView":31,"componentType":5126,"count":105,"max":[0.866897523403168,0.0000625070970272645,0.866840839385986,-1.0],"min":[-0.498585015535355,-1.0,0.0000763009302318096,-1.0],"normalized":false,"type":"VEC4"},{"bufferView":32,"componentType":5126,"count":105,"max":[0.866879522800446,1.0,0.866851210594177],"min":[-0.866884708404541,-1.0,-0.866842150688171],"normalized":false,"type":"VEC3"},{"bufferView":33,"componentType":5126,"count":105,"max":[1.0,1.0],"min":[0.0,0.0],"normalized":false,"type":"VEC2"},{"bufferView":34,"componentType":5123,"count":105,"max":[104.0],"min":[0.0],"normalized":false,"type":"SCALAR"},{"bufferView":35,"componentType":5126,"count":96,"max":[-195.819915771484,78.1995010375977,-771.718688964844],"min":[-424.501922607422,-78.1995010375977,-1000.40069580078],"normalized":false,"type":"VEC3"},{"bufferView":36,"componentType":5126,"count":96,"max":[1.0,0.0000647405249765143,0.990606546401978,1.0],"min":[-0.990612268447876,-0.0000215795153053477,-0.990609526634216,-1.0],"normalized":false,"type":"VEC4"},{"bufferView":37,"componentType":5126,"count":96,"max":[0.990606904029846,1.0,0.990606606006622],"min":[-0.990606904029846,-1.0,-0.990598976612091],"normalized":false,"type":"VEC3"},{"bufferView":38,"componentType":5126,"count":96,"max":[1.0,1.0],"min":[0.0,0.0],"normalized":false,"type":"VEC2"},{"bufferView":39,"componentType":5123,"count":96,"max":[95.0],"min":[0.0],"normalized":false,"type":"SCALAR"},{"bufferView":40,"componentType":5126,"count":1950,"max":[0.5,1.0,0.5],"min":[-0.5,-1.0,-0.5],"normalized":false,"type":"VEC3"},{"bufferView":41,"componentType":5126,"count":1950,"max":[1.0,0.0,1.0,1.0],"min":[-1.0,-0.0000215795153053477,-1.0,1.0],"normalized":false,"type":"VEC4"},{"bufferView":42,"componentType":5126,"count":1950,"max":[1.0,1.0,1.0],"min":[-1.0,-1.0,-1.0],"normalized":false,"type":"VEC3"},{"bufferView":43,"componentType":5126,"count":1950,"max":[1.0,1.0],"min":[0.0,0.0],"normalized":false,"type":"VEC2"},{"bufferView":44,"componentType":5123,"count":10368,"max":[1949.0],"min":[0.0],"normalized":false,"type":"SCALAR"}],"asset":{"generator":"Godot Engine v4.5.stable.official@876b290332ec6f2e6d173d08162a02aa7e6ca46d","version":"2.0"},"bufferViews":[{"buffer":0,"byteLength":8388,"byteStride":12,"target":34962},{"buffer":0,"byteLength":11184,"byteOffset":8388,"byteStride":16,"target":34962},{"buffer":0,"byteLength":8388,"byteOffset":19572,"byteStride":12,"target":34962},{"buffer":0,"byteLength":5592,"byteOffset":27960,"byteStride":8,"target":34962},{"buffer":0,"byteLength":1398,"byteOffset":33552,"target":34963},{"buffer":0,"byteLength":35640,"byteOffset":34952,"byteStride":12,"target":34962},{"buffer":0,"byteLength":47520,"byteOffset":70592,"byteStride":16,"target":34962},{"buffer":0,"byteLength":35640,"byteOffset":118112,"byteStride":12,"target":34962},{"buffer":0,"byteLength":23760,"byteOffset":153752,"byteStride":8,"target":34962},{"buffer":0,"byteLength":5940,"byteOffset":177512,"target":34963},{"buffer":0,"byteLength":1260,"byteOffset":183452,"byteStride":12,"target":34962},{"buffer":0,"byteLength":1680,"byteOffset":184712,"byteStride":16,"target":34962},{"buffer":0,"byteLength":1260,"byteOffset":186392,"byteStride":12,"target":34962},{"buffer":0,"byteLength":840,"byteOffset":187652,"byteStride":8,"target":34962},{"buffer":0,"byteLength":210,"byteOffset":188492,"target":34963},{"buffer":0,"byteLength":1152,"byteOffset":188704,"byteStride":12,"target":34962},{"buffer":0,"byteLength":1536,"byteOffset":189856,"byteStride":16,"target":34962},{"buffer":0,"byteLength":1152,"byteOffset":191392,"byteStride":12,"target":34962},{"buffer":0,"byteLength":768,"byteOffset":192544,"byteStride":8,"target":34962},{"buffer":0,"byteLength":192,"byteOffset":193312,"target":34963},{"buffer":0,"byteLength":8388,"byteOffset":193504,"byteStride":12,"target":34962},{"buffer":0,"byteLength":11184,"byteOffset":201892,"byteStride":16,"target":34962},{"buffer":0,"byteLength":8388,"byteOffset":213076,"byteStride":12,"target":34962},{"buffer":0,"byteLength":5592,"byteOffset":221464,"byteStride":8,"target":34962},{"buffer":0,"byteLength":1398,"byteOffset":227056,"target":34963},{"buffer":0,"byteLength":35640,"byteOffset":228456,"byteStride":12,"target":34962},{"buffer":0,"byteLength":47520,"byteOffset":264096,"byteStride":16,"target":34962},{"buffer":0,"byteLength":35640,"byteOffset":311616,"byteStride":12,"target":34962},{"buffer":0,"byteLength":23760,"byteOffset":347256,"byteStride":8,"target":34962},{"buffer":0,"byteLength":5940,"byteOffset":371016,"target":34963},{"buffer":0,"byteLength":1260,"byteOffset":376956,"byteStride":12,"target":34962},{"buffer":0,"byteLength":1680,"byteOffset":378216,"byteStride":16,"target":34962},{"buffer":0,"byteLength":1260,"byteOffset":379896,"byteStride":12,"target":34962},{"buffer":0,"byteLength":840,"byteOffset":381156,"byteStride":8,"target":34962},{"buffer":0,"byteLength":210,"byteOffset":381996,"target":34963},{"buffer":0,"byteLength":1152,"byteOffset":382208,"byteStride":12,"target":34962},{"buffer":0,"byteLength":1536,"byteOffset":383360,"byteStride":16,"target":34962},{"buffer":0,"byteLength":1152,"byteOffset":384896,"byteStride":12,"target":34962},{"buffer":0,"byteLength":768,"byteOffset":386048,"byteStride":8,"target":34962},{"buffer":0,"byteLength":192,"byteOffset":386816,"target":34963},{"buffer":0,"byteLength":23400,"byteOffset":387008,"byteStride":12,"target":34962},{"buffer":0,"byteLength":31200,"byteOffset":410408,"byteStride":16,"target":34962},{"buffer":0,"byteLength":23400,"byteOffset":441608,"byteStride":12,"target":34962},{"buffer":0,"byteLength":15600,"byteOffset":465008,"byteStride":8,"target":34962},{"buffer":0,"byteLength":20736,"byteOffset":480608,"target":34963}],"buffers":[{"byteLength":501344,"uri":"blockout0.bin"}],"cameras":[{"perspective":{"yfov":1.30899691581726,"zfar":4000.0,"znear":0.0500000007450581},"type":"perspective"}],"extensions":{"OMI_physics_shape":{"shapes":[{"capsule":{"height":2.0,"radius":0.5},"type":"capsule"}]}},"extensionsUsed":["GODOT_single_root","OMI_physics_body","OMI_physics_shape"],"materials":[{"extensions":{},"pbrMetallicRoughness":{"baseColorFactor":[0.477690488100052,0.477690666913986,0.477690488100052,1.0],"metallicFactor":0.0,"roughnessFactor":1.0}},{"extensions":{},"pbrMetallicRoughness":{"baseColorFactor":[0.0546763688325882,0.0546763688325882,0.0546763688325882,1.0],"metallicFactor":0.0,"roughnessFactor":1.0}},{"extensions":{},"pbrMetallicRoughness":{"baseColorFactor":[0.0546763688325882,0.0546763688325882,0.0546763688325882,1.0],"metallicFactor":0.0,"roughnessFactor":1.0}},{},{},{}],"meshes":[{"primitives":[{"attributes":{"NORMAL":2,"POSITION":0,"TANGENT":1,"TEXCOORD_0":3},"indices":4,"material":0,"mode":4},{"attributes":{"NORMAL":7,"POSITION":5,"TANGENT":6,"TEXCOORD_0":8},"indices":9,"material":1,"mode":4},{"attributes":{"NORMAL":12,"POSITION":10,"TANGENT":11,"TEXCOORD_0":13},"indices":14,"material":2,"mode":4},{"attributes":{"NORMAL":17,"POSITION":15,"TANGENT":16,"TEXCOORD_0":18},"indices":19,"material":3,"mode":4}]},{"primitives":[{"attributes":{"NORMAL":22,"POSITION":20,"TANGENT":21,"TEXCOORD_0":23},"indices":24,"material":0,"mode":4},{"attributes":{"NORMAL":27,"POSITION":25,"TANGENT":26,"TEXCOORD_0":28},"indices":29,"material":1,"mode":4},{"attributes":{"NORMAL":32,"POSITION":30,"TANGENT":31,"TEXCOORD_0":33},"indices":34,"material":2,"mode":4},{"attributes":{"NORMAL":37,"POSITION":35,"TANGENT":36,"TEXCOORD_0":38},"indices":39,"material":4,"mode":4}]},{"primitives":[{"attributes":{"NORMAL":42,"POSITION":40,"TANGENT":41,"TEXCOORD_0":43},"indices":44,"material":5,"mode":4}]}],"nodes":[{"children":[1,2,38,39,46],"name":"Main"},{"name":"WorldEnvironment"},{"children":[3,4,5,6,7,8,9,10,11,12,13,14,15,16,17,18,19,20,21,22,23,24,25,26,27,28,29,30,31,32,33,34,35,36,37],"mesh":0,"name":"CSGCombiner3D2"},{"name":"CSGBox3D","rotation":[0.0,0.0,0.00892724189907312,0.999960124492645],"translation":[-69.3192749023438,0.0,-89.6269073486328]},{"name":"CSGBox3D23","rotation":[0.0,0.0,0.00892724189907312,0.999960124492645],"translation":[-20.2364883422852,0.876452445983887,-260.042816162109]},{"name":"CSGBox3D2","translation":[-13.973388671875,5.3427734375,-21.4865550994873]},{"name":"CSGBox3D25","rotation":[0.0,-0.286950916051865,0.0,0.957945287227631],"translation":[-10.4174280166626,5.3427734375,-49.7546844482422]},{"name":"CSGBox3D6","rotation":[0.0,0.467628985643387,0.0,0.883924841880798],"translation":[-83.0408172607422,5.3427734375,1.40700340270996]},{"name":"CSGBox3D8","rotation":[0.0,-0.0195464976131916,0.0,0.999808967113495],"translation":[-114.452560424805,5.3427734375,-49.8231582641602]},{"name":"CSGBox3D11","rotation":[0.0,-0.0195464976131916,0.0,0.999808967113495],"translation":[-114.452560424805,5.3427734375,-49.8231582641602]},{"name":"CSGBox3D12","rotation":[0.0,0.15779609978199,0.0,0.987471699714661],"translation":[-134.099624633789,5.3427734375,-128.41145324707]},{"name":"CSGBox3D15","rotation":[0.0,-0.149906441569328,0.0,0.988700211048126],"translation":[-138.090438842773,5.3427734375,-152.663299560547]},{"name":"CSGBox3D16","rotation":[0.0,-0.5461385846138,0.0,0.837694823741913],"translation":[-95.7264556884766,5.3427734375,-193.492370605469]},{"name":"CSGBox3D17","rotation":[0.0,-0.73810225725174,0.0,0.674688875675201],"translation":[-11.1599245071411,5.3427734375,-201.608688354492]},{"name":"CSGBox3D19","rotation":[0.0,-0.73810225725174,0.0,0.674688875675201],"translation":[46.9680213928223,22.1827087402344,-203.064010620117]},{"name":"CSGBox3D20","rotation":[0.0,-0.782146215438843,0.0,0.623094916343689],"translation":[39.3496131896973,12.2368087768555,-133.098419189453]},{"name":"CSGBox3D21","rotation":[0.0,-0.662155985832214,0.0,0.749366044998169],"translation":[93.1376190185547,12.2368087768555,-130.849456787109]},{"name":"CSGBox3D22","rotation":[0.0,0.0970269441604614,0.0,0.995281755924225],"translation":[127.491683959961,23.4463119506836,-194.890991210938]},{"name":"CSGBox3D26","rotation":[0.0,-0.490280270576477,0.0,0.871564865112305],"translation":[250.412689208984,19.7172164916992,-289.901336669922]},{"name":"CSGBox3D31","rotation":[0.189755991101265,-0.480343520641327,-0.0482412576675415,0.854947686195374],"translation":[56.1123123168945,4.01640605926514,-409.9111328125]},{"name":"CSGBox3D34","rotation":[0.129393026232719,-0.394471555948257,0.0584144666790962,0.907875239849091],"translation":[174.442108154297,2.37856531143188,-336.417541503906]},{"name":"CSGBox3D27","rotation":[0.0,0.334884226322174,0.0,0.942259252071381],"translation":[6.52102851867676,23.4463119506836,-222.820693969727]},{"name":"CSGBox3D28","rotation":[0.0,0.428351640701294,0.0,0.90361213684082],"translation":[-44.3377685546875,23.4463119506836,-251.997482299805]},{"name":"CSGBox3D29","rotation":[0.0,0.600838840007782,0.0,0.799370229244232],"translation":[-93.6864318847656,23.4463119506836,-277.970458984375]},{"name":"CSGBox3D30","rotation":[0.0,0.122796043753624,0.0,0.992431938648224],"translation":[-153.850372314453,23.4463119506836,-381.101593017578]},{"name":"CSGBox3D32","rotation":[0.0,0.122796043753624,0.0,0.992431938648224],"translation":[-143.641189575195,23.4463119506836,-383.667297363281]},{"name":"CSGBox3D33","rotation":[0.0,0.316286563873291,0.0,0.948663711547852],"translation":[-113.444839477539,35.7499771118164,-441.978210449219]},{"name":"CSGBox3D24","rotation":[-0.0555622354149818,0.172780707478523,0.0651210695505142,0.981233358383179],"translation":[101.179077148438,34.2875823974609,-217.873962402344]},{"name":"CSGBox3D18","rotation":[0.0988827347755432,-0.731448650360107,0.0903873294591904,0.66860693693161],"translation":[5.71916389465332,-1.08328247070312,-168.519821166992]},{"name":"CSGBox3D9","rotation":[0.0,0.0152884405106306,0.0,0.999883115291595],"translation":[-60.2119789123535,5.3427734375,-59.2480087280273]},{"name":"CSGBox3D10","rotation":[0.0,-0.274143904447556,0.0,0.961688697338104],"translation":[-55.515811920166,5.3427734375,-95.6883163452148]},{"name":"CSGBox3D13","rotation":[0.0,-0.355759561061859,0.0,0.934577524662018],"translation":[-14.8063535690308,5.3427734375,-132.21549987793]},{"name":"CSGBox3D14","rotation":[0.0,-0.459006309509277,0.0,0.88843297958374],"translation":[-63.4529190063477,5.3427734375,-154.310348510742]},{"name":"CSGBox3D7","rotation":[0.0,0.752230942249298,0.0,0.658899545669556],"translation":[-42.1949424743652,5.3427734375,14.4126491546631]},{"name":"CSGBox3D3","translation":[15.026611328125,5.3427734375,-21.8854732513428]},{"name":"CSGBox3D4","rotation":[0.0,0.915132164955139,0.0,0.403154015541077],"translation":[24.0708141326904,5.3427734375,-51.5744819641113]},{"name":"CSGBox3D5","rotation":[0.0,0.966144561767578,0.0,0.258001357316971],"translation":[-46.7531890869141,5.3427734375,-67.7720794677734]},{"name":"CSGCylinder3D","translation":[-310.160919189453,0.0,-886.059692382812]},{"mesh":1,"name":"CSGBakedMeshInstance3D"},{"children":[40,41,45],"name":"FlameStuff"},{"name":"HTTPRequest"},{"children":[42,43,44],"name":"CanvasLayer"},{"name":"textbox"},{"name":"CurrentWord"},{"name":"TimeLeft"},{"name":"FlameTimer"},{"children":[47,49,50],"extensions":{"OMI_physics_body":{"motion":{"type":"kinematic"}}},"name":"Player","translation":[60.3867950439453,6.42972373962402,-276.029174804688]},{"children":[48],"name":"Character"},{"mesh":2,"name":"MeshInstance3D"},{"extensions":{"OMI_physics_body":{"collider":{"shape":0}}},"name":"CollisionShape3D"},{"children":[51],"name":"CamPivot"},{"camera":0,"name":"Camera3D","translation":[0.0,1.74144887924194,4.05716609954834]}],"scene":0,"scenes":[{"nodes":[0]}]}